# xmcd
#
# Track frame offsets:
#	150
#	17043
#	32268
#	48394
#	63544
#	80649
#	99292
#	115398
#	129160
#	145709
#	169803
#	187700
#	202343
#	216286
#	231664
#	262252
#
# Disc length: 3502 seconds
#
# Revision: 1
# Processed by: cddbd v1.5.2PL0 Copyright (c) Steve Scherf et al.
# Submitted via: audiograbber 1.83.01
#
DISCID=e60dac10
DTITLE=Various Artist - TT266
DYEAR=2001
DGENRE=Country
TTITLE0=Pat Green - Baby Doll
TTITLE1=Blake Shelton - Goodbye Time
TTITLE2=Toby Keith - Honky Tonk U
TTITLE3=Buddy Jewell - If She Were Any Other Woman
TTITLE4=Dierks Bentley - Lot Of Leavin' Left To Do
TTITLE5=Keith Urban - Making Memories Of Us
TTITLE6=Tim McGraw - My Old Friend 
TTITLE7=Keith Anderson - Pickin' Wildflowers
TTITLE8=LeAnn Rimes  - Probably Wouldn't Be This Way
TTITLE9=Big and Rich  - Real World 
TTITLE10=Hanna-McUen - Something Like A Broken Heart
TTITLE11=Brian McComas  - Middle Of Nowhere, The
TTITLE12=Alan Jackson - Talkin' Song Repair Blues, The
TTITLE13=Julie Roberts - Wake Up Older
TTITLE14=George Strait - You'll Be There
TTITLE15=Data - Data Track
EXTD=
EXTT0=
EXTT1=
EXTT2=
EXTT3=
EXTT4=
EXTT5=
EXTT6=
EXTT7=
EXTT8=
EXTT9=
EXTT10=
EXTT11=
EXTT12=
EXTT13=
EXTT14=
EXTT15=
PLAYORDER=
